<?xml version="1.0" standalone="yes"?>
<svg xmlns="http://www.w3.org/2000/svg" width="3262" height="3710">
<!-- <path style="fill:#010101; stroke:none;" d="M0 0L0 2692L1 2692C1 2582.38 29.5521 2469.63 63.3302 2366C127.196 2170.06 224.771 1982.8 342.72 1814C420.275 1703.01 507.529 1599.55 581.656 1486C743.5 1238.09 872.277 960.97 915.728 666C923.575 612.735 928.669 558.741 929.985 505C930.739 474.225 928.02 443.643 928 413L929 413C941.229 450.521 956.05 486.716 966.116 525C982.184 586.111 990.442 649.979 991.985 713C996.604 901.561 939.297 1088.13 861.309 1258C799.504 1392.62 723.438 1519.59 643.308 1644C537.733 1807.91 424.375 1965.34 334.742 2139C249.218 2304.7 179.275 2485.93 171.039 2674C166.793 2770.98 186.62 2873.64 239.692 2956C261.337 2989.59 288.889 3013.81 319 3039.27C430.673 3133.7 566.416 3167.5 710 3163.99C800.809 3161.76 893.19 3138.94 979 3110.33C1151.49 3052.84 1307.26 2963.44 1457 2861.75C1487.85 2840.8 1519.81 2821.87 1550 2799.85C1612.59 2754.19 1670.68 2702.29 1721.72 2644C1817.86 2534.19 1888.65 2398.49 1913.75 2254C1922.17 2205.53 1927.19 2156.21 1925.99 2107C1925.6 2091.44 1924.57 2075.48 1922.71 2060C1921.79 2052.25 1918.38 2041.66 1919.81 2034C1921.5 2024.97 1928.65 2015.2 1932.75 2007C1941.72 1989.06 1949.89 1970.32 1960 1953C1979.18 2021.1 1990.28 2093.38 1992.01 2164C1993.84 2238.4 1989.33 2311.92 1973.79 2385C1928.73 2596.88 1810.27 2782.98 1662.04 2938C1544.74 3060.67 1408.17 3165.15 1260 3247.86C1141.18 3314.19 1016.31 3368.29 883 3397.58C763.557 3423.81 636.329 3425.47 518 3392.58C370.055 3351.45 225.944 3259.31 131.424 3138C50.0487 3033.56 1 2896.92 1 2764L0 2764L0 3710L719 3710L955 3710C992.752 3710 1033.46 3714.38 1070.91 3709.87C1230.95 3690.58 1390.78 3663.73 1548 3627.65C1686.31 3595.91 1824.47 3554.49 1953 3493.78C2022.91 3460.76 2092.09 3421.93 2149 3368.91C2182.44 3337.76 2204.36 3299.1 2221.2 3257C2263.52 3151.19 2259.28 3042.54 2262.01 2931C2266.12 2763.38 2292.37 2588.38 2375.14 2440C2409.96 2377.58 2456.6 2320.32 2515 2278.58C2538 2262.14 2565.09 2244.46 2593 2238C2593 2190.27 2589.82 2142.75 2593.09 2095C2603.41 1944.27 2636.62 1792.21 2732.21 1671C2761.95 1633.28 2798.06 1600.61 2838 1574C2868.01 1554 2900.76 1537.41 2935 1526C2958.99 1518 2985.46 1508.94 3011 1508.26C3084.76 1506.29 3145.71 1563.22 3178.77 1624C3220.24 1700.26 3239.05 1786.57 3250.28 1872C3256.37 1918.32 3261 1965.29 3261 2012L3262 2012L3262 0L1759 0L1759 1C1776.21 3.54126 1794.3 14.1023 1808 24.375C1844.84 51.9946 1867.99 92.9304 1882.33 136C1914.65 233.019 1914.46 343.271 1904.83 444C1901.53 478.547 1892.71 514.441 1892 549L1890 549C1890 464.832 1885.34 378.291 1872.42 295C1866.04 253.814 1858.94 207.568 1833.84 173C1798.73 124.638 1725.32 117.384 1694.88 65C1676.06 32.6157 1709.49 3.57495 1741 1L1741 0L1577 0C1576.82 21.6106 1573.54 43.355 1573.01 65C1572.09 102.816 1574.58 141.387 1578.17 179C1601.68 425.047 1682.64 664.368 1785.31 888C1838.84 1004.6 1902.96 1115.12 1961.74 1229C2035.99 1372.84 2100.15 1522.83 2143.58 1679C2221.33 1958.65 2228.06 2249.56 2173.2 2534C2156.87 2618.64 2136.05 2702.44 2111.28 2785C2099.33 2824.85 2082.36 2864.53 2073 2905C2056.25 2901.02 2039.64 2890.47 2024 2883.31C1981.37 2863.79 1938.36 2839.1 1894 2824C1914.64 2789 1930.14 2750.65 1945.2 2713C1977.16 2633.09 2001.32 2550.14 2019.21 2466C2069.79 2228.16 2066.21 1980.6 2010.12 1744C1981.8 1624.57 1939.86 1509.43 1888.69 1398C1853.03 1320.33 1808.22 1247.49 1770.25 1171C1712.26 1054.19 1661.74 933.473 1616.95 811C1574.98 696.249 1539.19 580.163 1521.73 459C1505.83 348.659 1500.98 233.275 1526.88 124C1533.69 95.3076 1543 66.8159 1555.31 40C1561.56 26.3845 1570.1 13.697 1576 0L0 0z"/> -->
<path style="fill:#6bc9c7; stroke:none;" d="M1576 0C1497.29 128.603 1501.59 293.876 1518.84 438C1532.23 549.811 1562.81 656.876 1599.66 763C1647.94 902.08 1705.16 1037.52 1769.26 1170C1810.64 1255.52 1860.09 1336.5 1899.69 1423C2055.34 1762.94 2095.32 2146.38 2009.12 2510C1990.86 2587.02 1966.2 2663.01 1935.58 2736C1923.02 2765.93 1906.47 2794.2 1894 2824C1932.79 2842.38 1972.19 2859.46 2011 2877.78C2029.67 2886.59 2052.58 2901.94 2073 2905C2126.9 2739.35 2171.96 2573.07 2194.72 2400C2231.6 2119.59 2201.48 1833.4 2108.66 1566C2068.32 1449.81 2018.13 1337.24 1961.74 1228C1924.09 1155.05 1882.92 1083.96 1845.26 1011C1789.38 902.738 1739.91 790.435 1698.05 676C1644.59 529.826 1601.7 377.875 1583.16 223C1577.04 171.886 1572.92 120.477 1573 69C1573.02 53.5293 1573.7 37.4143 1575.17 22C1575.79 15.4692 1578.57 6.14526 1576 0M1890 549L1892 549C1893.48 514.562 1901.54 479.426 1904.83 445C1915.36 334.833 1915.86 210.488 1871.57 107C1851.38 59.8203 1815.23 17.572 1765 2.02539C1740.3 -5.61816 1696.15 7.96777 1689.68 36C1683.98 60.7114 1704.24 80.4443 1722 94.1125C1761.41 124.448 1814.14 138.688 1840.15 184C1863.06 223.904 1869.43 272.077 1875.28 317C1885.24 393.463 1890 471.938 1890 549M2393 1156C2324.49 1224.51 2261.64 1298.65 2193.99 1368C2174.22 1388.26 2155.2 1409.29 2135.91 1430C2129.91 1436.44 2115.94 1446.31 2113.79 1455C2112.66 1459.58 2116.5 1466.74 2118.05 1471C2122.67 1483.63 2126.87 1496.41 2131.58 1509C2148.9 1555.34 2163.2 1602.84 2181 1649C2195.12 1642.28 2207.83 1620.73 2218.16 1609L2305.16 1510C2381.96 1422.76 2459.01 1335.7 2535.28 1248C2557.12 1222.89 2579.17 1197.97 2601.16 1173C2612.32 1160.32 2628.22 1147 2636 1132L2639.17 1160L2644.09 1228L2654.09 1367L2659 1435L2660 1435L2668.17 1351L2685.83 1167L2692.83 1094L2696.03 1065L2716 1044L2762.91 997L2973 784L3036 720L3064.97 690L3066 668L3066 618L3066 437C3052.3 443.387 3039.74 462.263 3029 473C3000.67 501.331 2972.64 530.049 2944.96 559C2855.62 652.431 2764.4 744.598 2673 836C2673 796.769 2667.77 757.125 2665.09 718C2662.23 676.18 2661.63 633.624 2656.71 592C2653.16 561.841 2646.91 533.078 2634.85 505C2626.12 484.682 2615.22 464.909 2600.87 448C2590.32 435.583 2578.59 424.417 2565 415.355C2488.3 364.207 2388.11 395.428 2313 433.248C2272.52 453.628 2234.84 485.051 2201 514.845C2108.62 596.167 2028.33 697.492 2001.42 820C1995.6 846.517 1994.14 873.035 1992.96 900C1989.46 979.86 1997.4 1078.39 2069 1128.56C2108.98 1156.58 2158.12 1160.73 2205 1166.29C2240.1 1170.44 2274.95 1164.57 2310 1163.04C2338.88 1161.78 2365.14 1165.06 2393 1156M928 413C928.003 443.315 930.731 473.557 929.985 504C928.669 557.741 923.575 611.734 915.728 665C874.218 946.795 754.616 1212.99 602.947 1452C530.799 1565.69 446.076 1669.06 367.424 1778C297.855 1874.36 234.94 1976.69 181.753 2083C158.668 2129.14 136.685 2175.58 116.281 2223C6.79741 2477.47 -61.2332 2794.23 74.7809 3052C134.287 3164.78 231.247 3253.5 341 3316.42C426.003 3365.15 516.392 3399.57 614 3411.72C739 3427.27 866.485 3408.53 986 3370.34C1089.19 3337.38 1187.41 3290.74 1281 3236.42C1568.5 3069.57 1837.31 2814.08 1944.67 2492C1987.36 2363.91 2001.51 2230.03 1987.17 2096C1982.19 2049.54 1976.58 1996.95 1960 1953C1947.68 1967.86 1940.4 1990.7 1931.75 2008C1927.87 2015.76 1920.75 2025.37 1919.48 2034C1918.23 2042.49 1921.97 2053.41 1922.83 2062C1924.92 2082.92 1926 2103.97 1926 2125C1926 2174.47 1920.09 2224.57 1909.79 2273C1872.99 2446.02 1777.8 2594.71 1651 2715.96C1591.58 2772.77 1523.56 2815.87 1456 2861.75C1358.44 2928 1259.47 2990.96 1152 3040.31C1033.94 3094.52 911.302 3139.28 782 3157C663.565 3173.23 539.044 3164.5 430 3111.74C389.68 3092.23 353.349 3067.01 319 3038.44C273.878 3000.9 238.07 2960.93 213.309 2907C161.49 2794.13 162.676 2662.64 186.6 2543C231.1 2320.48 338.388 2113.25 459.053 1923C518.601 1829.11 583.108 1738.46 643.308 1645C757.757 1467.31 864.217 1283.35 931.333 1082C986.034 917.897 1010.37 739.885 976.2 569C968.406 530.026 958.358 491.266 944.424 454C939.862 441.799 936.626 422.777 928 413M1286 816C1296.55 812.002 1306.01 803.711 1316 798.309C1331.39 789.984 1347.99 783.915 1365 779.884C1376.9 777.064 1388.81 775.999 1401 776C1405.33 776 1413.91 778.335 1417.58 775.968C1421.06 773.724 1422.98 766.661 1424.58 763C1429.54 751.613 1437.82 739.237 1440 727C1396.07 727 1350.25 731.142 1314 759C1331.17 726.365 1358.98 685.704 1354.83 647C1353.06 630.598 1339.57 623.122 1326 616.782C1320.06 614.006 1311.14 611.016 1305.1 615.009C1289.47 625.349 1306.31 655.981 1305.62 670C1304.26 697.774 1292.39 725.515 1282.2 751C1278.58 760.043 1268.02 775.385 1268.49 785C1268.98 795.013 1281.73 806.963 1286 816z"/>
<!-- <path style="fill:#010101; stroke:none;" d="M2576 919C2576.68 903.065 2580.31 886.921 2581.83 871C2585.41 833.538 2586.02 794.08 2578.6 757C2573.87 733.366 2566.25 708.653 2548.96 691.015C2525.68 667.264 2481.26 666.063 2450 663.911C2356.76 657.491 2258.89 684.402 2195.72 757C2176.55 779.025 2160.01 802.936 2146.76 829C2139.02 844.223 2133.62 861.696 2141.98 878C2147.94 889.608 2158.64 896.66 2170 902.244C2195.11 914.589 2227.23 918.989 2255 919C2362 919.041 2469 919 2576 919M1313 759L1314 760L1313 759z"/> -->
<path style="fill:#6bc9c7; stroke:none;" d="M2880 1323C2886.36 1323 2899.15 1325.46 2904.61 1321.97C2910.27 1318.36 2914.04 1306.68 2917.58 1301C2926.08 1287.34 2936.12 1274.77 2947.09 1263C2975.28 1232.75 3016.47 1207.29 3057 1198L3057 1128C3012.04 1136.72 2972.82 1162.95 2942.84 1197C2932.45 1208.81 2919.48 1223.04 2914 1238C2911.14 1226.67 2915.72 1210.65 2916.83 1199C2919.32 1172.94 2921.11 1146.22 2919.96 1120C2919.01 1098.28 2915.7 1070.44 2895 1058.46C2880.76 1050.22 2840.41 1042.79 2836.33 1066C2830.75 1097.75 2861.87 1126.87 2869.37 1156C2883.37 1210.37 2880 1267.51 2880 1323M1576 1105C1545.08 1157.97 1501.92 1199.37 1455 1238.41C1410.42 1275.52 1363.17 1309.79 1314 1340.58C1281.42 1360.97 1247.7 1379.18 1216 1401.03C1133.36 1457.98 1060.36 1531.84 1006.95 1617C987.633 1647.8 970.135 1679.59 955.719 1713C948.968 1728.65 940.292 1745.99 938 1763C944.878 1757.32 949.337 1748.16 954.629 1741C966.139 1725.43 977.699 1709.9 990.081 1695C1027.39 1650.11 1068.51 1608.36 1115 1572.88C1177.82 1524.95 1248.14 1491.01 1315 1449.58C1375.56 1412.05 1431.83 1368.55 1481.04 1317C1521.51 1274.6 1557 1222.48 1571.37 1165C1575.04 1150.34 1577 1136.11 1577 1121C1577 1115.92 1577.98 1109.72 1576 1105M1566 1528C1576.94 1528 1597.2 1531.93 1607 1526.97C1614.95 1522.95 1621.25 1512.23 1628 1506.29C1649.23 1487.6 1678.63 1465.4 1708 1463L1705 1407C1666.14 1412.02 1610.95 1435.58 1599 1477C1597.23 1468.83 1600.33 1459.3 1600.91 1451C1602.84 1423.53 1609.4 1385.64 1593.45 1361C1584.19 1346.69 1566.23 1346.98 1551 1347C1544.22 1347.01 1534.67 1347.55 1531.74 1355.02C1529.38 1361.04 1532.97 1367.98 1536.06 1373C1543.01 1384.27 1553.11 1393.21 1557.33 1406C1569.99 1444.43 1566 1488.14 1566 1528M2593 2238C2565.75 2242.02 2536.89 2262.2 2515 2277.86C2453.16 2322.1 2406.9 2382.11 2370.14 2448C2294.35 2583.85 2269.74 2746.77 2263.04 2900C2260.78 2951.59 2263.22 3003.41 2260.96 3055C2257.65 3130.71 2244.52 3206.68 2212.69 3276C2161.25 3388.04 2045.71 3450.99 1938 3500.31C1749.38 3586.67 1544.24 3632.78 1341 3669.42C1283.59 3679.77 1225.83 3688.68 1168 3696.28C1137.24 3700.33 1105.03 3707.74 1074 3708L1074 3710C1361.64 3710 1660.08 3696.18 1934 3598.69C2062.41 3552.99 2195.22 3487.84 2276.57 3374C2303.25 3336.67 2320.41 3295.96 2335.69 3253C2363.76 3174.13 2381.19 3091.51 2386.91 3008C2390.94 2949.21 2387.99 2890.65 2395.28 2832C2414.5 2677.58 2479.8 2526.43 2599 2423.28C2661.15 2369.5 2739.34 2335.06 2815 2304.8C2885.8 2276.48 2966.76 2245 3044 2245L3044 1941C3034.74 1942.65 3025.58 1948.35 3017 1952.14C2997.96 1960.56 2978.93 1969.02 2960 1977.69C2905.46 2002.66 2852.3 2025.14 2792 2031.17C2754.56 2034.91 2701.63 2028.42 2701.02 1980C2700.56 1943.83 2722.43 1905.97 2740.4 1876C2782.41 1805.94 2860.63 1736.94 2946 1731.09C2969.33 1729.49 2995.69 1735.21 3018 1741.58C3040.01 1747.86 3060.8 1759.2 3078 1774.29C3118.4 1809.73 3137.92 1862.6 3148.2 1914C3162.25 1984.28 3159.98 2056.02 3155.09 2127C3152.45 2165.39 3149.28 2205.21 3141.55 2243C3137.58 2262.43 3128.18 2281.83 3120.42 2300C3103.62 2339.36 3083.82 2377.3 3061.8 2414C2970.92 2565.47 2841.52 2693.97 2691 2786.19C2633.21 2821.59 2572.8 2852.83 2510 2878.4C2492.13 2885.67 2474.18 2892.84 2456 2899.31C2450.53 2901.25 2438.25 2903.13 2435.03 2908.28C2431.76 2913.5 2433.33 2924.92 2432.91 2931C2431.65 2949.34 2430.17 2967.66 2428.91 2986C2424.49 3050.58 2415 3116.26 2415 3181C2449.13 3168.58 2482.26 3143.57 2513 3124.42C2584.96 3079.61 2654.4 3030.65 2721 2978.21C2949.92 2797.97 3170.01 2559.51 3239.12 2268C3259.48 2182.1 3264.89 2094.97 3261.04 2007C3256.44 1901.97 3246.23 1794.86 3210.69 1695C3191.44 1640.91 3164.57 1586.96 3120 1549.27C3090.66 1524.47 3049.98 1507.17 3011 1508.13C2988.44 1508.69 2964.25 1515.92 2943 1523C2894.85 1539.05 2850.23 1562.27 2810 1593.35C2661.97 1707.71 2606.36 1898.74 2594.09 2078C2590.43 2131.5 2593 2184.51 2593 2238M2444 1640.42C2418.73 1643.75 2395.1 1651.3 2376 1669.09C2366.96 1677.51 2359.14 1687.85 2353.78 1699C2318.4 1772.66 2386.3 1852.01 2464 1842.71C2483.28 1840.41 2502.06 1834.46 2518 1823.09C2531.64 1813.36 2542.86 1800.87 2550.68 1786C2587.97 1715.1 2521.12 1630.27 2444 1640.42M1642 2673C1654.92 2663.9 1665.6 2649.68 1676.17 2638C1691.51 2621.04 1707.82 2604.96 1723.17 2588C1733.28 2576.83 1749.22 2565.57 1756 2552C1762.24 2539.52 1759.78 2517.85 1761.17 2504C1764.88 2466.89 1769.71 2429.87 1775.42 2393C1792.46 2283.16 1820.22 2173.42 1863.85 2071C1887.02 2016.61 1914.21 1963.36 1948.42 1915C1959.45 1899.42 1971.09 1884.15 1983.93 1870C1988.53 1864.92 1999.65 1856.8 2000.93 1850C2001.81 1845.36 1998.53 1838.52 1997.37 1834C1994.02 1820.96 1990.31 1808.02 1986.88 1795C1974.43 1747.64 1962.28 1700.13 1949 1653C1942.6 1656.12 1938.36 1663.51 1934 1669C1924.4 1681.11 1915.27 1693.56 1906.12 1706C1868.02 1757.77 1834.49 1813.53 1805.75 1871C1714.36 2053.78 1666.44 2252.41 1646.83 2455C1642.07 2504.16 1640 2553.58 1640 2603C1640 2625.79 1637.84 2650.57 1642 2673z"/>
<!-- <path style="fill:#010101; stroke:none;" d="M2441 1674.44C2430.72 1676.05 2420.81 1679.7 2412 1685.23C2404.36 1690.02 2397.48 1696.58 2392.35 1704C2356.81 1755.39 2407.92 1816.48 2465 1807.56C2474.98 1806 2484.44 1802.26 2493 1796.93C2500.68 1792.16 2506.94 1786.23 2512.33 1779C2550 1728.52 2497.7 1665.58 2441 1674.44M3044 1941L3044 2245C2966.66 2245 2885.92 2276.05 2815 2304.4C2739.23 2334.68 2661.61 2369.09 2599 2422.43C2479.37 2524.35 2414.4 2677.36 2395.28 2831C2387.99 2889.65 2390.94 2948.21 2386.91 3007C2381.93 3079.81 2367.67 3151.34 2346.03 3221C2331.85 3266.62 2315.62 3312.46 2289.95 3353C2218.86 3465.23 2097.13 3535.89 1976 3582.81C1829.49 3639.56 1674.45 3669.13 1519 3688.28C1419.77 3700.51 1318.96 3709 1219 3709L1219 3710L3262 3710L3262 2106L3261 2106C3261 2236.11 3216.71 2370.47 3155.31 2484C3034.34 2707.67 2846.74 2891.09 2641 3037.71C2568.47 3089.4 2493.92 3139.48 2415 3181C2415 3116.05 2426.1 3050.88 2428.96 2986C2429.77 2967.64 2432.15 2949.35 2432.96 2931C2433.22 2925.15 2431.87 2912.99 2435.6 2908.28C2439.84 2902.93 2451.79 2901.22 2458 2898.95C2475.8 2892.44 2493.45 2885.54 2511 2878.4C2568.72 2854.9 2624.57 2826.66 2678 2794.6C2833.59 2701.25 2967.65 2571.92 3061.2 2416C3083.42 2378.96 3103.47 2340.73 3120.42 2301C3128.18 2282.83 3137.58 2263.43 3141.55 2244C3149.28 2206.21 3152.45 2166.39 3155.09 2128C3160.05 2055.99 3162.25 1983.28 3148 1912C3137.34 1858.7 3116.31 1804.43 3073 1769.26C3055.35 1754.93 3033.91 1745.26 3012 1739.63C2991.04 1734.24 2966.7 1729.6 2945 1731.09C2860.03 1736.91 2782.23 1805.24 2740.4 1875C2722 1905.69 2699.43 1944.86 2701.04 1982C2703.13 2030.1 2755.55 2034.91 2793 2031.17C2860.63 2024.41 2918.71 1996.24 2980 1969.14C3000.82 1959.93 3022.13 1947.3 3044 1941z"/> -->
<path style="fill:#6bc9c7; stroke:none;" d="M373 2943L374 2943C380.77 2913.74 394.268 2884.83 405.4 2857C430.997 2793.01 460.914 2730.6 493.691 2670C641.265 2397.17 859.78 2147.89 1149 2022.42C1270.21 1969.84 1398.4 1940.1 1530 1931.09C1578.9 1927.74 1628.08 1928.9 1677 1931.04C1690.62 1931.64 1704.42 1932.87 1718 1934.17C1722.33 1934.58 1730.65 1937.06 1734.61 1934.88C1738.39 1932.8 1740.41 1925.67 1742.25 1922C1747.45 1911.59 1753.04 1901.39 1758.25 1891C1772.81 1861.94 1787.71 1833.07 1802.25 1804C1809.04 1790.42 1818.79 1776.62 1823 1762C1787.51 1748.69 1743.4 1748.4 1706 1744.83C1610.35 1735.69 1512.94 1740.74 1418 1754.73C1186.6 1788.82 966.432 1899.46 802.015 2066C651.023 2218.95 543.661 2408.6 468.95 2609C441.339 2683.06 418.208 2758.58 398.116 2835C392.089 2857.92 386.581 2880.94 381.116 2904C378.141 2916.55 373.563 2930.1 373 2943M2276 2262C2285.37 2256.34 2291.63 2243.67 2300 2236.29C2322.15 2216.75 2347.44 2201.58 2376 2193.43C2398.66 2186.96 2422.49 2183.51 2446 2183.05C2453.85 2182.9 2471.92 2188.5 2478.5 2183.97C2482.18 2181.44 2483.59 2173.94 2485.28 2170C2491.04 2156.6 2499.52 2141.38 2502 2127C2449.69 2120.35 2399.44 2125.04 2352 2150C2366.11 2116.11 2387.4 2073.75 2372.6 2036C2370.26 2030.03 2364.28 2027.59 2359 2024.69C2348.18 2018.75 2337.01 2012.39 2325 2009.16C2320.43 2007.93 2311.5 2006.16 2308.01 2010.43C2304.29 2014.98 2306.98 2022.18 2308.7 2027C2312.56 2037.82 2319.29 2047.54 2325.67 2057C2328.42 2061.08 2333.47 2065.72 2332.84 2071C2330.85 2087.84 2322.6 2105.75 2317.72 2122C2303.89 2168.1 2285.75 2214.9 2276 2262z"/>
<!-- <path style="fill:#010101; stroke:none;" d="M2351 2150L2352 2151L2351 2150z"/> -->
<path style="fill:#6bc9c7; stroke:none;" d="M1343 2290.42C1333.36 2291.71 1323.95 2293.28 1315 2297.31C1268.5 2318.27 1271 2366.92 1271 2410C1271 2441.7 1271.13 2471.66 1289.75 2499C1302.1 2517.15 1324.76 2534.97 1347 2538.67C1359.74 2540.8 1373.22 2538 1386 2538C1399.85 2538 1413.12 2539.54 1427 2537.71C1436.54 2536.46 1446.33 2533.93 1455 2529.74C1462.59 2526.08 1469.79 2521.63 1475.96 2515.83C1510.09 2483.7 1501.22 2438.5 1503.04 2397C1504.16 2371.43 1509.61 2338.05 1493.24 2316C1469.1 2283.49 1421.22 2290 1386 2290C1371.92 2290 1356.96 2288.57 1343 2290.42M2522 2645C2528.25 2646.84 2538.2 2640.34 2544 2637.85C2563.4 2629.52 2582.43 2620.35 2601 2610.31C2639.72 2589.37 2677.64 2566.06 2710 2535.91C2723.2 2523.62 2733.62 2508.99 2746.04 2496C2768.7 2472.3 2793.45 2452.52 2822 2436.42C2839.34 2426.65 2858.73 2419.69 2878 2414.87C2887.93 2412.39 2899.62 2412.1 2909 2408.12C2917.72 2404.42 2929.99 2394.66 2923.91 2384C2918.07 2373.77 2901.85 2369.4 2891 2367.87C2857.2 2363.12 2822.92 2379.83 2796 2398.72C2736.34 2440.61 2701.74 2503.05 2653.83 2556C2617.8 2595.83 2571.93 2625.63 2522 2645M912 2695L911 2695C905.396 2675.55 890.124 2656 878.127 2640C849.006 2601.16 813.613 2568.56 770 2546.75C753.845 2538.68 734.229 2529.49 716 2528L716 2607C716 2615.46 712.963 2631.04 716.603 2638.7C718.944 2643.62 734.022 2646.19 739 2648.2C758.935 2656.24 777.872 2666.55 796 2678.05C835.377 2703.04 868.096 2737.09 894.856 2775C903.82 2787.7 911.116 2801.4 918.564 2815C921.098 2819.63 922.744 2828.01 927.39 2830.97C935.298 2836.02 956.641 2832 966 2832C963.656 2777.41 961.565 2722.71 963.961 2668C965.804 2625.9 967.079 2583.19 977.375 2542C985.416 2509.84 1006.83 2489.31 1022.23 2461C1027.99 2450.4 1036.32 2435.44 1031.74 2423C1026.59 2409.04 1008.25 2409 996 2409C964.946 2409.01 928.923 2415.81 914.865 2447C902.228 2475.03 902 2506.86 902 2537C902 2589.94 907.841 2642.3 912 2695M1821.04 2801.34C1817.81 2802.2 1815.35 2806.56 1813.4 2809L1796.6 2830L1732 2911L1713.6 2934C1711.14 2937.11 1707.51 2940.72 1709.22 2945C1713.09 2954.69 1724.05 2964.38 1731 2972C1747.94 2990.57 1765.91 3007.91 1785 3024.27C1863.26 3091.34 1954.24 3138.81 2046 3184.25C2073.94 3198.08 2103.06 3210.03 2132 3221.6C2139.39 3224.56 2156.16 3234.61 2163.99 3232.3C2168.62 3230.94 2171.55 3224.78 2173.95 3221C2181.19 3209.56 2186.63 3196.81 2191 3184C2208.23 3133.42 2217.35 3075.38 2218 3022C2218.18 3008 2220 2994.03 2220 2980C2220 2976.13 2221.54 2967.92 2218.97 2964.74C2215.54 2960.5 2196.53 2961.48 2191 2961C2166.53 2958.86 2141.91 2953.84 2118 2948.35C2042.36 2930.99 1968.62 2899.66 1903 2858.32C1882.01 2845.09 1861.66 2831.02 1842 2815.88C1837.81 2812.65 1826.52 2799.89 1821.04 2801.34M3072 2978C3040.26 3032.37 2995.46 3074.71 2947 3114.42C2904.05 3149.62 2858.92 3182.25 2812 3211.95C2783.33 3230.1 2753.13 3245.72 2725 3264.75C2646.7 3317.69 2578.19 3382.95 2523.29 3460C2496.45 3497.66 2473.68 3537.87 2454.69 3580C2447.22 3596.58 2436.6 3616.7 2435 3635L2436 3635C2492 3552.68 2560.81 3478.67 2643 3422.03C2694.9 3386.25 2751.15 3358.31 2805 3325.8C2866.1 3288.9 2925.35 3245.32 2974.09 3193C3015.62 3148.41 3053.1 3097.03 3068.13 3037C3071.67 3022.83 3074 3008.62 3074 2994C3074 2988.84 3075.23 2982.26 3072 2978M958 3597L958 3598C981.736 3596.13 1005.52 3590.97 1029 3587.08C1082.36 3578.24 1135.38 3567.36 1188 3554.88C1371.72 3511.33 1555.11 3445.6 1713 3340.33C1770.06 3302.3 1826.03 3260.02 1872.17 3209C1886.36 3193.31 1907.27 3175.09 1915 3155C1880.13 3136.41 1844.57 3120.04 1812 3097.28C1803.78 3091.54 1795.79 3085.51 1788 3079.2C1785.68 3077.32 1781.6 3072.34 1778.21 3073.35C1772.53 3075.03 1766.08 3091.07 1762.95 3096C1750.38 3115.8 1736.24 3134.7 1721.6 3153C1673.79 3212.77 1616.75 3264.77 1556 3311.12C1418.43 3416.07 1258.98 3492.76 1097 3551.95C1051.15 3568.7 1004.45 3582.15 958 3597z"/>
</svg>
